<?xml version="1.0" encoding="iso-8859-1"?>
<!-- Generator: Adobe Illustrator 19.0.0, SVG Export Plug-In . SVG Version: 6.00 Build 0)  -->
<svg version="1.1" id="Capa_1" xmlns="http://www.w3.org/2000/svg" xmlns:xlink="http://www.w3.org/1999/xlink" x="0px" y="0px"
	 viewBox="0 0 512 512" style="enable-background:new 0 0 512 512;" xml:space="preserve">
<g>
	<g>
		<path d="M386.227,306.528c-31.214-31.214-71.659-49.832-115.179-53.329v-30.711h29.047V192.39h-88.193v30.098h29.047v30.711
			c-43.52,3.496-83.966,22.115-115.18,53.329c-31.214,31.214-49.832,71.66-53.328,115.179h367.114
			C436.061,378.187,417.441,337.74,386.227,306.528z"/>
	</g>
</g>
<g>
	<g>
		<polygon points="420.899,481.902 420.899,451.804 91.391,451.804 91.391,481.902 44.312,481.902 44.312,512 467.688,512 
			467.688,481.902 		"/>
	</g>
</g>
<g>
	<g>
		<rect x="240.953" width="30.098" height="63.166"/>
	</g>
</g>
<g>
	<g>
		<rect x="397.853" y="198.185" width="64.349" height="30.098"/>
	</g>
</g>
<g>
	<g>
		<rect x="49.79" y="198.185" width="63.96" height="30.098"/>
	</g>
</g>
<g>
	<g>
		<polygon points="395.427,52.523 395.21,52.742 349.675,98.277 370.957,119.559 416.491,74.024 416.71,73.805 		"/>
	</g>
</g>
<g>
	<g>
		<polygon points="116.587,52.537 106.358,62.765 95.119,73.631 105.945,63.178 95.304,73.819 140.84,119.354 162.122,98.072 		"/>
	</g>
</g>
<g>
</g>
<g>
</g>
<g>
</g>
<g>
</g>
<g>
</g>
<g>
</g>
<g>
</g>
<g>
</g>
<g>
</g>
<g>
</g>
<g>
</g>
<g>
</g>
<g>
</g>
<g>
</g>
<g>
</g>
</svg>
